<svg width="140" height="140" viewBox="0 0 140 140" fill="none" xmlns="http://www.w3.org/2000/svg">
<path d="M4.8275 0.00012207H-9.15527e-05V4.82771H4.8275V0.00012207Z" fill="black" fill-opacity="0.88"/>
<path d="M9.65508 0.00012207H4.8275V4.82771H9.65508V0.00012207Z" fill="black" fill-opacity="0.88"/>
<path d="M14.4827 0.00012207H9.65508V4.82771H14.4827V0.00012207Z" fill="black" fill-opacity="0.88"/>
<path d="M19.3103 0.00012207H14.4827V4.82771H19.3103V0.00012207Z" fill="black" fill-opacity="0.88"/>
<path d="M24.1378 0.00012207H19.3103V4.82771H24.1378V0.00012207Z" fill="black" fill-opacity="0.88"/>
<path d="M28.9654 0.00012207H24.1378V4.82771H28.9654V0.00012207Z" fill="black" fill-opacity="0.88"/>
<path d="M33.793 0.00012207H28.9654V4.82771H33.793V0.00012207Z" fill="black" fill-opacity="0.88"/>
<path d="M43.4482 0.00012207H38.6206V4.82771H43.4482V0.00012207Z" fill="black" fill-opacity="0.88"/>
<path d="M53.1034 0.00012207H48.2758V4.82771H53.1034V0.00012207Z" fill="black" fill-opacity="0.88"/>
<path d="M62.7585 0.00012207H57.9309V4.82771H62.7585V0.00012207Z" fill="black" fill-opacity="0.88"/>
<path d="M77.2413 0.00012207H72.4137V4.82771H77.2413V0.00012207Z" fill="black" fill-opacity="0.88"/>
<path d="M82.0689 0.00012207H77.2413V4.82771H82.0689V0.00012207Z" fill="black" fill-opacity="0.88"/>
<path d="M86.8965 0.00012207H82.0689V4.82771H86.8965V0.00012207Z" fill="black" fill-opacity="0.88"/>
<path d="M91.724 0.00012207H86.8965V4.82771H91.724V0.00012207Z" fill="black" fill-opacity="0.88"/>
<path d="M96.5516 0.00012207H91.724V4.82771H96.5516V0.00012207Z" fill="black" fill-opacity="0.88"/>
<path d="M101.379 0.00012207H96.5516V4.82771H101.379V0.00012207Z" fill="black" fill-opacity="0.88"/>
<path d="M111.034 0.00012207H106.207V4.82771H111.034V0.00012207Z" fill="black" fill-opacity="0.88"/>
<path d="M115.862 0.00012207H111.034V4.82771H115.862V0.00012207Z" fill="black" fill-opacity="0.88"/>
<path d="M120.69 0.00012207H115.862V4.82771H120.69V0.00012207Z" fill="black" fill-opacity="0.88"/>
<path d="M125.517 0.00012207H120.69V4.82771H125.517V0.00012207Z" fill="black" fill-opacity="0.88"/>
<path d="M130.345 0.00012207H125.517V4.82771H130.345V0.00012207Z" fill="black" fill-opacity="0.88"/>
<path d="M135.172 0.00012207H130.345V4.82771H135.172V0.00012207Z" fill="black" fill-opacity="0.88"/>
<path d="M140 0.00012207H135.172V4.82771H140V0.00012207Z" fill="black" fill-opacity="0.88"/>
<path d="M4.8275 4.82771H-9.15527e-05V9.6553H4.8275V4.82771Z" fill="black" fill-opacity="0.88"/>
<path d="M33.793 4.82771H28.9654V9.6553H33.793V4.82771Z" fill="black" fill-opacity="0.88"/>
<path d="M48.2758 4.82771H43.4482V9.6553H48.2758V4.82771Z" fill="black" fill-opacity="0.88"/>
<path d="M57.9309 4.82771H53.1034V9.6553H57.9309V4.82771Z" fill="black" fill-opacity="0.88"/>
<path d="M62.7585 4.82771H57.9309V9.6553H62.7585V4.82771Z" fill="black" fill-opacity="0.88"/>
<path d="M72.4137 4.82771H67.5861V9.6553H72.4137V4.82771Z" fill="black" fill-opacity="0.88"/>
<path d="M86.8965 4.82771H82.0689V9.6553H86.8965V4.82771Z" fill="black" fill-opacity="0.88"/>
<path d="M91.724 4.82771H86.8965V9.6553H91.724V4.82771Z" fill="black" fill-opacity="0.88"/>
<path d="M96.5516 4.82771H91.724V9.6553H96.5516V4.82771Z" fill="black" fill-opacity="0.88"/>
<path d="M101.379 4.82771H96.5516V9.6553H101.379V4.82771Z" fill="black" fill-opacity="0.88"/>
<path d="M111.034 4.82771H106.207V9.6553H111.034V4.82771Z" fill="black" fill-opacity="0.88"/>
<path d="M140 4.82771H135.172V9.6553H140V4.82771Z" fill="black" fill-opacity="0.88"/>
<path d="M4.8275 9.6553H-9.15527e-05V14.4829H4.8275V9.6553Z" fill="black" fill-opacity="0.88"/>
<path d="M14.4827 9.6553H9.65508V14.4829H14.4827V9.6553Z" fill="black" fill-opacity="0.88"/>
<path d="M19.3103 9.6553H14.4827V14.4829H19.3103V9.6553Z" fill="black" fill-opacity="0.88"/>
<path d="M24.1378 9.6553H19.3103V14.4829H24.1378V9.6553Z" fill="black" fill-opacity="0.88"/>
<path d="M33.793 9.6553H28.9654V14.4829H33.793V9.6553Z" fill="black" fill-opacity="0.88"/>
<path d="M48.2758 9.6553H43.4482V14.4829H48.2758V9.6553Z" fill="black" fill-opacity="0.88"/>
<path d="M62.7585 9.6553H57.9309V14.4829H62.7585V9.6553Z" fill="black" fill-opacity="0.88"/>
<path d="M67.5861 9.6553H62.7585V14.4829H67.5861V9.6553Z" fill="black" fill-opacity="0.88"/>
<path d="M77.2413 9.6553H72.4137V14.4829H77.2413V9.6553Z" fill="black" fill-opacity="0.88"/>
<path d="M82.0689 9.6553H77.2413V14.4829H82.0689V9.6553Z" fill="black" fill-opacity="0.88"/>
<path d="M91.724 9.6553H86.8965V14.4829H91.724V9.6553Z" fill="black" fill-opacity="0.88"/>
<path d="M101.379 9.6553H96.5516V14.4829H101.379V9.6553Z" fill="black" fill-opacity="0.88"/>
<path d="M111.034 9.6553H106.207V14.4829H111.034V9.6553Z" fill="black" fill-opacity="0.88"/>
<path d="M120.69 9.6553H115.862V14.4829H120.69V9.6553Z" fill="black" fill-opacity="0.88"/>
<path d="M125.517 9.6553H120.69V14.4829H125.517V9.6553Z" fill="black" fill-opacity="0.88"/>
<path d="M130.345 9.6553H125.517V14.4829H130.345V9.6553Z" fill="black" fill-opacity="0.88"/>
<path d="M140 9.6553H135.172V14.4829H140V9.6553Z" fill="black" fill-opacity="0.88"/>
<path d="M4.8275 14.4829H-9.15527e-05V19.3105H4.8275V14.4829Z" fill="black" fill-opacity="0.88"/>
<path d="M14.4827 14.4829H9.65508V19.3105H14.4827V14.4829Z" fill="black" fill-opacity="0.88"/>
<path d="M19.3103 14.4829H14.4827V19.3105H19.3103V14.4829Z" fill="black" fill-opacity="0.88"/>
<path d="M24.1378 14.4829H19.3103V19.3105H24.1378V14.4829Z" fill="black" fill-opacity="0.88"/>
<path d="M33.793 14.4829H28.9654V19.3105H33.793V14.4829Z" fill="black" fill-opacity="0.88"/>
<path d="M43.4482 14.4829H38.6206V19.3105H43.4482V14.4829Z" fill="black" fill-opacity="0.88"/>
<path d="M48.2758 14.4829H43.4482V19.3105H48.2758V14.4829Z" fill="black" fill-opacity="0.88"/>
<path d="M57.9309 14.4829H53.1034V19.3105H57.9309V14.4829Z" fill="black" fill-opacity="0.88"/>
<path d="M62.7585 14.4829H57.9309V19.3105H62.7585V14.4829Z" fill="black" fill-opacity="0.88"/>
<path d="M67.5861 14.4829H62.7585V19.3105H67.5861V14.4829Z" fill="black" fill-opacity="0.88"/>
<path d="M82.0689 14.4829H77.2413V19.3105H82.0689V14.4829Z" fill="black" fill-opacity="0.88"/>
<path d="M86.8965 14.4829H82.0689V19.3105H86.8965V14.4829Z" fill="black" fill-opacity="0.88"/>
<path d="M91.724 14.4829H86.8965V19.3105H91.724V14.4829Z" fill="black" fill-opacity="0.88"/>
<path d="M96.5516 14.4829H91.724V19.3105H96.5516V14.4829Z" fill="black" fill-opacity="0.88"/>
<path d="M111.034 14.4829H106.207V19.3105H111.034V14.4829Z" fill="black" fill-opacity="0.88"/>
<path d="M120.69 14.4829H115.862V19.3105H120.69V14.4829Z" fill="black" fill-opacity="0.88"/>
<path d="M125.517 14.4829H120.69V19.3105H125.517V14.4829Z" fill="black" fill-opacity="0.88"/>
<path d="M130.345 14.4829H125.517V19.3105H130.345V14.4829Z" fill="black" fill-opacity="0.88"/>
<path d="M140 14.4829H135.172V19.3105H140V14.4829Z" fill="black" fill-opacity="0.88"/>
<path d="M4.8275 19.3105H-9.15527e-05V24.1381H4.8275V19.3105Z" fill="black" fill-opacity="0.88"/>
<path d="M14.4827 19.3105H9.65508V24.1381H14.4827V19.3105Z" fill="black" fill-opacity="0.88"/>
<path d="M19.3103 19.3105H14.4827V24.1381H19.3103V19.3105Z" fill="black" fill-opacity="0.88"/>
<path d="M24.1378 19.3105H19.3103V24.1381H24.1378V19.3105Z" fill="black" fill-opacity="0.88"/>
<path d="M33.793 19.3105H28.9654V24.1381H33.793V19.3105Z" fill="black" fill-opacity="0.88"/>
<path d="M43.4482 19.3105H38.6206V24.1381H43.4482V19.3105Z" fill="black" fill-opacity="0.88"/>
<path d="M48.2758 19.3105H43.4482V24.1381H48.2758V19.3105Z" fill="black" fill-opacity="0.88"/>
<path d="M53.1034 19.3105H48.2758V24.1381H53.1034V19.3105Z" fill="black" fill-opacity="0.88"/>
<path d="M62.7585 19.3105H57.9309V24.1381H62.7585V19.3105Z" fill="black" fill-opacity="0.88"/>
<path d="M77.2413 19.3105H72.4137V24.1381H77.2413V19.3105Z" fill="black" fill-opacity="0.88"/>
<path d="M86.8965 19.3105H82.0689V24.1381H86.8965V19.3105Z" fill="black" fill-opacity="0.88"/>
<path d="M91.724 19.3105H86.8965V24.1381H91.724V19.3105Z" fill="black" fill-opacity="0.88"/>
<path d="M101.379 19.3105H96.5516V24.1381H101.379V19.3105Z" fill="black" fill-opacity="0.88"/>
<path d="M111.034 19.3105H106.207V24.1381H111.034V19.3105Z" fill="black" fill-opacity="0.88"/>
<path d="M120.69 19.3105H115.862V24.1381H120.69V19.3105Z" fill="black" fill-opacity="0.88"/>
<path d="M125.517 19.3105H120.69V24.1381H125.517V19.3105Z" fill="black" fill-opacity="0.88"/>
<path d="M130.345 19.3105H125.517V24.1381H130.345V19.3105Z" fill="black" fill-opacity="0.88"/>
<path d="M140 19.3105H135.172V24.1381H140V19.3105Z" fill="black" fill-opacity="0.88"/>
<path d="M4.8275 24.1381H-9.15527e-05V28.9656H4.8275V24.1381Z" fill="black" fill-opacity="0.88"/>
<path d="M33.793 24.1381H28.9654V28.9656H33.793V24.1381Z" fill="black" fill-opacity="0.88"/>
<path d="M43.4482 24.1381H38.6206V28.9656H43.4482V24.1381Z" fill="black" fill-opacity="0.88"/>
<path d="M53.1034 24.1381H48.2758V28.9656H53.1034V24.1381Z" fill="black" fill-opacity="0.88"/>
<path d="M57.9309 24.1381H53.1034V28.9656H57.9309V24.1381Z" fill="black" fill-opacity="0.88"/>
<path d="M77.2413 24.1381H72.4137V28.9656H77.2413V24.1381Z" fill="black" fill-opacity="0.88"/>
<path d="M82.0689 24.1381H77.2413V28.9656H82.0689V24.1381Z" fill="black" fill-opacity="0.88"/>
<path d="M96.5516 24.1381H91.724V28.9656H96.5516V24.1381Z" fill="black" fill-opacity="0.88"/>
<path d="M111.034 24.1381H106.207V28.9656H111.034V24.1381Z" fill="black" fill-opacity="0.88"/>
<path d="M140 24.1381H135.172V28.9656H140V24.1381Z" fill="black" fill-opacity="0.88"/>
<path d="M4.8275 28.9656H-9.15527e-05V33.7932H4.8275V28.9656Z" fill="black" fill-opacity="0.88"/>
<path d="M9.65508 28.9656H4.8275V33.7932H9.65508V28.9656Z" fill="black" fill-opacity="0.88"/>
<path d="M14.4827 28.9656H9.65508V33.7932H14.4827V28.9656Z" fill="black" fill-opacity="0.88"/>
<path d="M19.3103 28.9656H14.4827V33.7932H19.3103V28.9656Z" fill="black" fill-opacity="0.88"/>
<path d="M24.1378 28.9656H19.3103V33.7932H24.1378V28.9656Z" fill="black" fill-opacity="0.88"/>
<path d="M28.9654 28.9656H24.1378V33.7932H28.9654V28.9656Z" fill="black" fill-opacity="0.88"/>
<path d="M33.793 28.9656H28.9654V33.7932H33.793V28.9656Z" fill="black" fill-opacity="0.88"/>
<path d="M43.4482 28.9656H38.6206V33.7932H43.4482V28.9656Z" fill="black" fill-opacity="0.88"/>
<path d="M53.1034 28.9656H48.2758V33.7932H53.1034V28.9656Z" fill="black" fill-opacity="0.88"/>
<path d="M62.7585 28.9656H57.9309V33.7932H62.7585V28.9656Z" fill="black" fill-opacity="0.88"/>
<path d="M72.4137 28.9656H67.5861V33.7932H72.4137V28.9656Z" fill="black" fill-opacity="0.88"/>
<path d="M82.0689 28.9656H77.2413V33.7932H82.0689V28.9656Z" fill="black" fill-opacity="0.88"/>
<path d="M91.724 28.9656H86.8965V33.7932H91.724V28.9656Z" fill="black" fill-opacity="0.88"/>
<path d="M101.379 28.9656H96.5516V33.7932H101.379V28.9656Z" fill="black" fill-opacity="0.88"/>
<path d="M111.034 28.9656H106.207V33.7932H111.034V28.9656Z" fill="black" fill-opacity="0.88"/>
<path d="M115.862 28.9656H111.034V33.7932H115.862V28.9656Z" fill="black" fill-opacity="0.88"/>
<path d="M120.69 28.9656H115.862V33.7932H120.69V28.9656Z" fill="black" fill-opacity="0.88"/>
<path d="M125.517 28.9656H120.69V33.7932H125.517V28.9656Z" fill="black" fill-opacity="0.88"/>
<path d="M130.345 28.9656H125.517V33.7932H130.345V28.9656Z" fill="black" fill-opacity="0.88"/>
<path d="M135.172 28.9656H130.345V33.7932H135.172V28.9656Z" fill="black" fill-opacity="0.88"/>
<path d="M140 28.9656H135.172V33.7932H140V28.9656Z" fill="black" fill-opacity="0.88"/>
<path d="M43.4482 33.7932H38.6206V38.6208H43.4482V33.7932Z" fill="black" fill-opacity="0.88"/>
<path d="M48.2758 33.7932H43.4482V38.6208H48.2758V33.7932Z" fill="black" fill-opacity="0.88"/>
<path d="M67.5861 33.7932H62.7585V38.6208H67.5861V33.7932Z" fill="black" fill-opacity="0.88"/>
<path d="M96.5516 33.7932H91.724V38.6208H96.5516V33.7932Z" fill="black" fill-opacity="0.88"/>
<path d="M4.8275 38.6208H-9.15527e-05V43.4484H4.8275V38.6208Z" fill="black" fill-opacity="0.88"/>
<path d="M9.65508 38.6208H4.8275V43.4484H9.65508V38.6208Z" fill="black" fill-opacity="0.88"/>
<path d="M14.4827 38.6208H9.65508V43.4484H14.4827V38.6208Z" fill="black" fill-opacity="0.88"/>
<path d="M24.1378 38.6208H19.3103V43.4484H24.1378V38.6208Z" fill="black" fill-opacity="0.88"/>
<path d="M33.793 38.6208H28.9654V43.4484H33.793V38.6208Z" fill="black" fill-opacity="0.88"/>
<path d="M43.4482 38.6208H38.6206V43.4484H43.4482V38.6208Z" fill="black" fill-opacity="0.88"/>
<path d="M62.7585 38.6208H57.9309V43.4484H62.7585V38.6208Z" fill="black" fill-opacity="0.88"/>
<path d="M91.724 38.6208H86.8965V43.4484H91.724V38.6208Z" fill="black" fill-opacity="0.88"/>
<path d="M106.207 38.6208H101.379V43.4484H106.207V38.6208Z" fill="black" fill-opacity="0.88"/>
<path d="M111.034 38.6208H106.207V43.4484H111.034V38.6208Z" fill="black" fill-opacity="0.88"/>
<path d="M115.862 38.6208H111.034V43.4484H115.862V38.6208Z" fill="black" fill-opacity="0.88"/>
<path d="M120.69 38.6208H115.862V43.4484H120.69V38.6208Z" fill="black" fill-opacity="0.88"/>
<path d="M125.517 38.6208H120.69V43.4484H125.517V38.6208Z" fill="black" fill-opacity="0.88"/>
<path d="M140 38.6208H135.172V43.4484H140V38.6208Z" fill="black" fill-opacity="0.88"/>
<path d="M9.65508 43.4484H4.8275V48.276H9.65508V43.4484Z" fill="black" fill-opacity="0.88"/>
<path d="M19.3103 43.4484H14.4827V48.276H19.3103V43.4484Z" fill="black" fill-opacity="0.88"/>
<path d="M38.6206 43.4484H33.793V48.276H38.6206V43.4484Z" fill="black" fill-opacity="0.88"/>
<path d="M43.4482 43.4484H38.6206V48.276H43.4482V43.4484Z" fill="black" fill-opacity="0.88"/>
<path d="M62.7585 43.4484H57.9309V48.276H62.7585V43.4484Z" fill="black" fill-opacity="0.88"/>
<path d="M67.5861 43.4484H62.7585V48.276H67.5861V43.4484Z" fill="black" fill-opacity="0.88"/>
<path d="M82.0689 43.4484H77.2413V48.276H82.0689V43.4484Z" fill="black" fill-opacity="0.88"/>
<path d="M86.8965 43.4484H82.0689V48.276H86.8965V43.4484Z" fill="black" fill-opacity="0.88"/>
<path d="M101.379 43.4484H96.5516V48.276H101.379V43.4484Z" fill="black" fill-opacity="0.88"/>
<path d="M135.172 43.4484H130.345V48.276H135.172V43.4484Z" fill="black" fill-opacity="0.88"/>
<path d="M140 43.4484H135.172V48.276H140V43.4484Z" fill="black" fill-opacity="0.88"/>
<path d="M24.1378 48.276H19.3103V53.1036H24.1378V48.276Z" fill="black" fill-opacity="0.88"/>
<path d="M28.9654 48.276H24.1378V53.1036H28.9654V48.276Z" fill="black" fill-opacity="0.88"/>
<path d="M33.793 48.276H28.9654V53.1036H33.793V48.276Z" fill="black" fill-opacity="0.88"/>
<path d="M38.6206 48.276H33.793V53.1036H38.6206V48.276Z" fill="black" fill-opacity="0.88"/>
<path d="M43.4482 48.276H38.6206V53.1036H43.4482V48.276Z" fill="black" fill-opacity="0.88"/>
<path d="M57.9309 48.276H53.1034V53.1036H57.9309V48.276Z" fill="black" fill-opacity="0.88"/>
<path d="M62.7585 48.276H57.9309V53.1036H62.7585V48.276Z" fill="black" fill-opacity="0.88"/>
<path d="M67.5861 48.276H62.7585V53.1036H67.5861V48.276Z" fill="black" fill-opacity="0.88"/>
<path d="M72.4137 48.276H67.5861V53.1036H72.4137V48.276Z" fill="black" fill-opacity="0.88"/>
<path d="M82.0689 48.276H77.2413V53.1036H82.0689V48.276Z" fill="black" fill-opacity="0.88"/>
<path d="M96.5516 48.276H91.724V53.1036H96.5516V48.276Z" fill="black" fill-opacity="0.88"/>
<path d="M111.034 48.276H106.207V53.1036H111.034V48.276Z" fill="black" fill-opacity="0.88"/>
<path d="M120.69 48.276H115.862V53.1036H120.69V48.276Z" fill="black" fill-opacity="0.88"/>
<path d="M130.345 48.276H125.517V53.1036H130.345V48.276Z" fill="black" fill-opacity="0.88"/>
<path d="M140 48.276H135.172V53.1036H140V48.276Z" fill="black" fill-opacity="0.88"/>
<path d="M4.8275 53.1036H-9.15527e-05V57.9312H4.8275V53.1036Z" fill="black" fill-opacity="0.88"/>
<path d="M9.65508 53.1036H4.8275V57.9312H9.65508V53.1036Z" fill="black" fill-opacity="0.88"/>
<path d="M14.4827 53.1036H9.65508V57.9312H14.4827V53.1036Z" fill="black" fill-opacity="0.88"/>
<path d="M19.3103 53.1036H14.4827V57.9312H19.3103V53.1036Z" fill="black" fill-opacity="0.88"/>
<path d="M28.9654 53.1036H24.1378V57.9312H28.9654V53.1036Z" fill="black" fill-opacity="0.88"/>
<path d="M53.1034 53.1036H48.2758V57.9312H53.1034V53.1036Z" fill="black" fill-opacity="0.88"/>
<path d="M57.9309 53.1036H53.1034V57.9312H57.9309V53.1036Z" fill="black" fill-opacity="0.88"/>
<path d="M62.7585 53.1036H57.9309V57.9312H62.7585V53.1036Z" fill="black" fill-opacity="0.88"/>
<path d="M67.5861 53.1036H62.7585V57.9312H67.5861V53.1036Z" fill="black" fill-opacity="0.88"/>
<path d="M77.2413 53.1036H72.4137V57.9312H77.2413V53.1036Z" fill="black" fill-opacity="0.88"/>
<path d="M91.724 53.1036H86.8965V57.9312H91.724V53.1036Z" fill="black" fill-opacity="0.88"/>
<path d="M111.034 53.1036H106.207V57.9312H111.034V53.1036Z" fill="black" fill-opacity="0.88"/>
<path d="M115.862 53.1036H111.034V57.9312H115.862V53.1036Z" fill="black" fill-opacity="0.88"/>
<path d="M120.69 53.1036H115.862V57.9312H120.69V53.1036Z" fill="black" fill-opacity="0.88"/>
<path d="M135.172 53.1036H130.345V57.9312H135.172V53.1036Z" fill="black" fill-opacity="0.88"/>
<path d="M14.4827 57.9312H9.65508V62.7587H14.4827V57.9312Z" fill="black" fill-opacity="0.88"/>
<path d="M19.3103 57.9312H14.4827V62.7587H19.3103V57.9312Z" fill="black" fill-opacity="0.88"/>
<path d="M24.1378 57.9312H19.3103V62.7587H24.1378V57.9312Z" fill="black" fill-opacity="0.88"/>
<path d="M28.9654 57.9312H24.1378V62.7587H28.9654V57.9312Z" fill="black" fill-opacity="0.88"/>
<path d="M33.793 57.9312H28.9654V62.7587H33.793V57.9312Z" fill="black" fill-opacity="0.88"/>
<path d="M43.4482 57.9312H38.6206V62.7587H43.4482V57.9312Z" fill="black" fill-opacity="0.88"/>
<path d="M53.1034 57.9312H48.2758V62.7587H53.1034V57.9312Z" fill="black" fill-opacity="0.88"/>
<path d="M57.9309 57.9312H53.1034V62.7587H57.9309V57.9312Z" fill="black" fill-opacity="0.88"/>
<path d="M62.7585 57.9312H57.9309V62.7587H62.7585V57.9312Z" fill="black" fill-opacity="0.88"/>
<path d="M67.5861 57.9312H62.7585V62.7587H67.5861V57.9312Z" fill="black" fill-opacity="0.88"/>
<path d="M72.4137 57.9312H67.5861V62.7587H72.4137V57.9312Z" fill="black" fill-opacity="0.88"/>
<path d="M77.2413 57.9312H72.4137V62.7587H77.2413V57.9312Z" fill="black" fill-opacity="0.88"/>
<path d="M86.8965 57.9312H82.0689V62.7587H86.8965V57.9312Z" fill="black" fill-opacity="0.88"/>
<path d="M96.5516 57.9312H91.724V62.7587H96.5516V57.9312Z" fill="black" fill-opacity="0.88"/>
<path d="M101.379 57.9312H96.5516V62.7587H101.379V57.9312Z" fill="black" fill-opacity="0.88"/>
<path d="M115.862 57.9312H111.034V62.7587H115.862V57.9312Z" fill="black" fill-opacity="0.88"/>
<path d="M120.69 57.9312H115.862V62.7587H120.69V57.9312Z" fill="black" fill-opacity="0.88"/>
<path d="M38.6206 62.7587H33.793V67.5863H38.6206V62.7587Z" fill="black" fill-opacity="0.88"/>
<path d="M43.4482 62.7587H38.6206V67.5863H43.4482V62.7587Z" fill="black" fill-opacity="0.88"/>
<path d="M48.2758 62.7587H43.4482V67.5863H48.2758V62.7587Z" fill="black" fill-opacity="0.88"/>
<path d="M53.1034 62.7587H48.2758V67.5863H53.1034V62.7587Z" fill="black" fill-opacity="0.88"/>
<path d="M57.9309 62.7587H53.1034V67.5863H57.9309V62.7587Z" fill="black" fill-opacity="0.88"/>
<path d="M62.7585 62.7587H57.9309V67.5863H62.7585V62.7587Z" fill="black" fill-opacity="0.88"/>
<path d="M67.5861 62.7587H62.7585V67.5863H67.5861V62.7587Z" fill="black" fill-opacity="0.88"/>
<path d="M72.4137 62.7587H67.5861V67.5863H72.4137V62.7587Z" fill="black" fill-opacity="0.88"/>
<path d="M86.8965 62.7587H82.0689V67.5863H86.8965V62.7587Z" fill="black" fill-opacity="0.88"/>
<path d="M101.379 62.7587H96.5516V67.5863H101.379V62.7587Z" fill="black" fill-opacity="0.88"/>
<path d="M120.69 62.7587H115.862V67.5863H120.69V62.7587Z" fill="black" fill-opacity="0.88"/>
<path d="M130.345 62.7587H125.517V67.5863H130.345V62.7587Z" fill="black" fill-opacity="0.88"/>
<path d="M135.172 62.7587H130.345V67.5863H135.172V62.7587Z" fill="black" fill-opacity="0.88"/>
<path d="M24.1378 67.5863H19.3103V72.4139H24.1378V67.5863Z" fill="black" fill-opacity="0.88"/>
<path d="M33.793 67.5863H28.9654V72.4139H33.793V67.5863Z" fill="black" fill-opacity="0.88"/>
<path d="M67.5861 67.5863H62.7585V72.4139H67.5861V67.5863Z" fill="black" fill-opacity="0.88"/>
<path d="M82.0689 67.5863H77.2413V72.4139H82.0689V67.5863Z" fill="black" fill-opacity="0.88"/>
<path d="M86.8965 67.5863H82.0689V72.4139H86.8965V67.5863Z" fill="black" fill-opacity="0.88"/>
<path d="M96.5516 67.5863H91.724V72.4139H96.5516V67.5863Z" fill="black" fill-opacity="0.88"/>
<path d="M101.379 67.5863H96.5516V72.4139H101.379V67.5863Z" fill="black" fill-opacity="0.88"/>
<path d="M106.207 67.5863H101.379V72.4139H106.207V67.5863Z" fill="black" fill-opacity="0.88"/>
<path d="M111.034 67.5863H106.207V72.4139H111.034V67.5863Z" fill="black" fill-opacity="0.88"/>
<path d="M115.862 67.5863H111.034V72.4139H115.862V67.5863Z" fill="black" fill-opacity="0.88"/>
<path d="M120.69 67.5863H115.862V72.4139H120.69V67.5863Z" fill="black" fill-opacity="0.88"/>
<path d="M130.345 67.5863H125.517V72.4139H130.345V67.5863Z" fill="black" fill-opacity="0.88"/>
<path d="M4.8275 72.4139H-9.15527e-05V77.2415H4.8275V72.4139Z" fill="black" fill-opacity="0.88"/>
<path d="M14.4827 72.4139H9.65508V77.2415H14.4827V72.4139Z" fill="black" fill-opacity="0.88"/>
<path d="M24.1378 72.4139H19.3103V77.2415H24.1378V72.4139Z" fill="black" fill-opacity="0.88"/>
<path d="M28.9654 72.4139H24.1378V77.2415H28.9654V72.4139Z" fill="black" fill-opacity="0.88"/>
<path d="M38.6206 72.4139H33.793V77.2415H38.6206V72.4139Z" fill="black" fill-opacity="0.88"/>
<path d="M53.1034 72.4139H48.2758V77.2415H53.1034V72.4139Z" fill="black" fill-opacity="0.88"/>
<path d="M62.7585 72.4139H57.9309V77.2415H62.7585V72.4139Z" fill="black" fill-opacity="0.88"/>
<path d="M77.2413 72.4139H72.4137V77.2415H77.2413V72.4139Z" fill="black" fill-opacity="0.88"/>
<path d="M91.724 72.4139H86.8965V77.2415H91.724V72.4139Z" fill="black" fill-opacity="0.88"/>
<path d="M101.379 72.4139H96.5516V77.2415H101.379V72.4139Z" fill="black" fill-opacity="0.88"/>
<path d="M115.862 72.4139H111.034V77.2415H115.862V72.4139Z" fill="black" fill-opacity="0.88"/>
<path d="M130.345 72.4139H125.517V77.2415H130.345V72.4139Z" fill="black" fill-opacity="0.88"/>
<path d="M135.172 72.4139H130.345V77.2415H135.172V72.4139Z" fill="black" fill-opacity="0.88"/>
<path d="M4.8275 77.2415H-9.15527e-05V82.0691H4.8275V77.2415Z" fill="black" fill-opacity="0.88"/>
<path d="M9.65508 77.2415H4.8275V82.0691H9.65508V77.2415Z" fill="black" fill-opacity="0.88"/>
<path d="M14.4827 77.2415H9.65508V82.0691H14.4827V77.2415Z" fill="black" fill-opacity="0.88"/>
<path d="M19.3103 77.2415H14.4827V82.0691H19.3103V77.2415Z" fill="black" fill-opacity="0.88"/>
<path d="M24.1378 77.2415H19.3103V82.0691H24.1378V77.2415Z" fill="black" fill-opacity="0.88"/>
<path d="M28.9654 77.2415H24.1378V82.0691H28.9654V77.2415Z" fill="black" fill-opacity="0.88"/>
<path d="M33.793 77.2415H28.9654V82.0691H33.793V77.2415Z" fill="black" fill-opacity="0.88"/>
<path d="M38.6206 77.2415H33.793V82.0691H38.6206V77.2415Z" fill="black" fill-opacity="0.88"/>
<path d="M48.2758 77.2415H43.4482V82.0691H48.2758V77.2415Z" fill="black" fill-opacity="0.88"/>
<path d="M53.1034 77.2415H48.2758V82.0691H53.1034V77.2415Z" fill="black" fill-opacity="0.88"/>
<path d="M57.9309 77.2415H53.1034V82.0691H57.9309V77.2415Z" fill="black" fill-opacity="0.88"/>
<path d="M62.7585 77.2415H57.9309V82.0691H62.7585V77.2415Z" fill="black" fill-opacity="0.88"/>
<path d="M67.5861 77.2415H62.7585V82.0691H67.5861V77.2415Z" fill="black" fill-opacity="0.88"/>
<path d="M72.4137 77.2415H67.5861V82.0691H72.4137V77.2415Z" fill="black" fill-opacity="0.88"/>
<path d="M82.0689 77.2415H77.2413V82.0691H82.0689V77.2415Z" fill="black" fill-opacity="0.88"/>
<path d="M86.8965 77.2415H82.0689V82.0691H86.8965V77.2415Z" fill="black" fill-opacity="0.88"/>
<path d="M101.379 77.2415H96.5516V82.0691H101.379V77.2415Z" fill="black" fill-opacity="0.88"/>
<path d="M120.69 77.2415H115.862V82.0691H120.69V77.2415Z" fill="black" fill-opacity="0.88"/>
<path d="M9.65508 82.0691H4.8275V86.8967H9.65508V82.0691Z" fill="black" fill-opacity="0.88"/>
<path d="M19.3103 82.0691H14.4827V86.8967H19.3103V82.0691Z" fill="black" fill-opacity="0.88"/>
<path d="M24.1378 82.0691H19.3103V86.8967H24.1378V82.0691Z" fill="black" fill-opacity="0.88"/>
<path d="M43.4482 82.0691H38.6206V86.8967H43.4482V82.0691Z" fill="black" fill-opacity="0.88"/>
<path d="M48.2758 82.0691H43.4482V86.8967H48.2758V82.0691Z" fill="black" fill-opacity="0.88"/>
<path d="M57.9309 82.0691H53.1034V86.8967H57.9309V82.0691Z" fill="black" fill-opacity="0.88"/>
<path d="M67.5861 82.0691H62.7585V86.8967H67.5861V82.0691Z" fill="black" fill-opacity="0.88"/>
<path d="M101.379 82.0691H96.5516V86.8967H101.379V82.0691Z" fill="black" fill-opacity="0.88"/>
<path d="M115.862 82.0691H111.034V86.8967H115.862V82.0691Z" fill="black" fill-opacity="0.88"/>
<path d="M130.345 82.0691H125.517V86.8967H130.345V82.0691Z" fill="black" fill-opacity="0.88"/>
<path d="M4.8275 86.8967H-9.15527e-05V91.7243H4.8275V86.8967Z" fill="black" fill-opacity="0.88"/>
<path d="M14.4827 86.8967H9.65508V91.7243H14.4827V86.8967Z" fill="black" fill-opacity="0.88"/>
<path d="M24.1378 86.8967H19.3103V91.7243H24.1378V86.8967Z" fill="black" fill-opacity="0.88"/>
<path d="M28.9654 86.8967H24.1378V91.7243H28.9654V86.8967Z" fill="black" fill-opacity="0.88"/>
<path d="M33.793 86.8967H28.9654V91.7243H33.793V86.8967Z" fill="black" fill-opacity="0.88"/>
<path d="M48.2758 86.8967H43.4482V91.7243H48.2758V86.8967Z" fill="black" fill-opacity="0.88"/>
<path d="M67.5861 86.8967H62.7585V91.7243H67.5861V86.8967Z" fill="black" fill-opacity="0.88"/>
<path d="M82.0689 86.8967H77.2413V91.7243H82.0689V86.8967Z" fill="black" fill-opacity="0.88"/>
<path d="M86.8965 86.8967H82.0689V91.7243H86.8965V86.8967Z" fill="black" fill-opacity="0.88"/>
<path d="M96.5516 86.8967H91.724V91.7243H96.5516V86.8967Z" fill="black" fill-opacity="0.88"/>
<path d="M106.207 86.8967H101.379V91.7243H106.207V86.8967Z" fill="black" fill-opacity="0.88"/>
<path d="M111.034 86.8967H106.207V91.7243H111.034V86.8967Z" fill="black" fill-opacity="0.88"/>
<path d="M115.862 86.8967H111.034V91.7243H115.862V86.8967Z" fill="black" fill-opacity="0.88"/>
<path d="M130.345 86.8967H125.517V91.7243H130.345V86.8967Z" fill="black" fill-opacity="0.88"/>
<path d="M135.172 86.8967H130.345V91.7243H135.172V86.8967Z" fill="black" fill-opacity="0.88"/>
<path d="M140 86.8967H135.172V91.7243H140V86.8967Z" fill="black" fill-opacity="0.88"/>
<path d="M9.65508 91.7243H4.8275V96.5518H9.65508V91.7243Z" fill="black" fill-opacity="0.88"/>
<path d="M14.4827 91.7243H9.65508V96.5518H14.4827V91.7243Z" fill="black" fill-opacity="0.88"/>
<path d="M24.1378 91.7243H19.3103V96.5518H24.1378V91.7243Z" fill="black" fill-opacity="0.88"/>
<path d="M38.6206 91.7243H33.793V96.5518H38.6206V91.7243Z" fill="black" fill-opacity="0.88"/>
<path d="M43.4482 91.7243H38.6206V96.5518H43.4482V91.7243Z" fill="black" fill-opacity="0.88"/>
<path d="M48.2758 91.7243H43.4482V96.5518H48.2758V91.7243Z" fill="black" fill-opacity="0.88"/>
<path d="M62.7585 91.7243H57.9309V96.5518H62.7585V91.7243Z" fill="black" fill-opacity="0.88"/>
<path d="M72.4137 91.7243H67.5861V96.5518H72.4137V91.7243Z" fill="black" fill-opacity="0.88"/>
<path d="M77.2413 91.7243H72.4137V96.5518H77.2413V91.7243Z" fill="black" fill-opacity="0.88"/>
<path d="M86.8965 91.7243H82.0689V96.5518H86.8965V91.7243Z" fill="black" fill-opacity="0.88"/>
<path d="M91.724 91.7243H86.8965V96.5518H91.724V91.7243Z" fill="black" fill-opacity="0.88"/>
<path d="M96.5516 91.7243H91.724V96.5518H96.5516V91.7243Z" fill="black" fill-opacity="0.88"/>
<path d="M101.379 91.7243H96.5516V96.5518H101.379V91.7243Z" fill="black" fill-opacity="0.88"/>
<path d="M106.207 91.7243H101.379V96.5518H106.207V91.7243Z" fill="black" fill-opacity="0.88"/>
<path d="M111.034 91.7243H106.207V96.5518H111.034V91.7243Z" fill="black" fill-opacity="0.88"/>
<path d="M115.862 91.7243H111.034V96.5518H115.862V91.7243Z" fill="black" fill-opacity="0.88"/>
<path d="M120.69 91.7243H115.862V96.5518H120.69V91.7243Z" fill="black" fill-opacity="0.88"/>
<path d="M140 91.7243H135.172V96.5518H140V91.7243Z" fill="black" fill-opacity="0.88"/>
<path d="M4.8275 96.5518H-9.15527e-05V101.379H4.8275V96.5518Z" fill="black" fill-opacity="0.88"/>
<path d="M9.65508 96.5518H4.8275V101.379H9.65508V96.5518Z" fill="black" fill-opacity="0.88"/>
<path d="M14.4827 96.5518H9.65508V101.379H14.4827V96.5518Z" fill="black" fill-opacity="0.88"/>
<path d="M28.9654 96.5518H24.1378V101.379H28.9654V96.5518Z" fill="black" fill-opacity="0.88"/>
<path d="M33.793 96.5518H28.9654V101.379H33.793V96.5518Z" fill="black" fill-opacity="0.88"/>
<path d="M38.6206 96.5518H33.793V101.379H38.6206V96.5518Z" fill="black" fill-opacity="0.88"/>
<path d="M57.9309 96.5518H53.1034V101.379H57.9309V96.5518Z" fill="black" fill-opacity="0.88"/>
<path d="M62.7585 96.5518H57.9309V101.379H62.7585V96.5518Z" fill="black" fill-opacity="0.88"/>
<path d="M72.4137 96.5518H67.5861V101.379H72.4137V96.5518Z" fill="black" fill-opacity="0.88"/>
<path d="M77.2413 96.5518H72.4137V101.379H77.2413V96.5518Z" fill="black" fill-opacity="0.88"/>
<path d="M86.8965 96.5518H82.0689V101.379H86.8965V96.5518Z" fill="black" fill-opacity="0.88"/>
<path d="M91.724 96.5518H86.8965V101.379H91.724V96.5518Z" fill="black" fill-opacity="0.88"/>
<path d="M101.379 96.5518H96.5516V101.379H101.379V96.5518Z" fill="black" fill-opacity="0.88"/>
<path d="M106.207 96.5518H101.379V101.379H106.207V96.5518Z" fill="black" fill-opacity="0.88"/>
<path d="M111.034 96.5518H106.207V101.379H111.034V96.5518Z" fill="black" fill-opacity="0.88"/>
<path d="M115.862 96.5518H111.034V101.379H115.862V96.5518Z" fill="black" fill-opacity="0.88"/>
<path d="M120.69 96.5518H115.862V101.379H120.69V96.5518Z" fill="black" fill-opacity="0.88"/>
<path d="M125.517 96.5518H120.69V101.379H125.517V96.5518Z" fill="black" fill-opacity="0.88"/>
<path d="M140 96.5518H135.172V101.379H140V96.5518Z" fill="black" fill-opacity="0.88"/>
<path d="M43.4482 101.379H38.6206V106.207H43.4482V101.379Z" fill="black" fill-opacity="0.88"/>
<path d="M48.2758 101.379H43.4482V106.207H48.2758V101.379Z" fill="black" fill-opacity="0.88"/>
<path d="M53.1034 101.379H48.2758V106.207H53.1034V101.379Z" fill="black" fill-opacity="0.88"/>
<path d="M77.2413 101.379H72.4137V106.207H77.2413V101.379Z" fill="black" fill-opacity="0.88"/>
<path d="M91.724 101.379H86.8965V106.207H91.724V101.379Z" fill="black" fill-opacity="0.88"/>
<path d="M96.5516 101.379H91.724V106.207H96.5516V101.379Z" fill="black" fill-opacity="0.88"/>
<path d="M101.379 101.379H96.5516V106.207H101.379V101.379Z" fill="black" fill-opacity="0.88"/>
<path d="M120.69 101.379H115.862V106.207H120.69V101.379Z" fill="black" fill-opacity="0.88"/>
<path d="M125.517 101.379H120.69V106.207H125.517V101.379Z" fill="black" fill-opacity="0.88"/>
<path d="M130.345 101.379H125.517V106.207H130.345V101.379Z" fill="black" fill-opacity="0.88"/>
<path d="M4.8275 106.207H-9.15527e-05V111.035H4.8275V106.207Z" fill="black" fill-opacity="0.88"/>
<path d="M9.65508 106.207H4.8275V111.035H9.65508V106.207Z" fill="black" fill-opacity="0.88"/>
<path d="M14.4827 106.207H9.65508V111.035H14.4827V106.207Z" fill="black" fill-opacity="0.88"/>
<path d="M19.3103 106.207H14.4827V111.035H19.3103V106.207Z" fill="black" fill-opacity="0.88"/>
<path d="M24.1378 106.207H19.3103V111.035H24.1378V106.207Z" fill="black" fill-opacity="0.88"/>
<path d="M28.9654 106.207H24.1378V111.035H28.9654V106.207Z" fill="black" fill-opacity="0.88"/>
<path d="M33.793 106.207H28.9654V111.035H33.793V106.207Z" fill="black" fill-opacity="0.88"/>
<path d="M62.7585 106.207H57.9309V111.035H62.7585V106.207Z" fill="black" fill-opacity="0.88"/>
<path d="M67.5861 106.207H62.7585V111.035H67.5861V106.207Z" fill="black" fill-opacity="0.88"/>
<path d="M91.724 106.207H86.8965V111.035H91.724V106.207Z" fill="black" fill-opacity="0.88"/>
<path d="M96.5516 106.207H91.724V111.035H96.5516V106.207Z" fill="black" fill-opacity="0.88"/>
<path d="M101.379 106.207H96.5516V111.035H101.379V106.207Z" fill="black" fill-opacity="0.88"/>
<path d="M111.034 106.207H106.207V111.035H111.034V106.207Z" fill="black" fill-opacity="0.88"/>
<path d="M120.69 106.207H115.862V111.035H120.69V106.207Z" fill="black" fill-opacity="0.88"/>
<path d="M140 106.207H135.172V111.035H140V106.207Z" fill="black" fill-opacity="0.88"/>
<path d="M4.8275 111.035H-9.15527e-05V115.862H4.8275V111.035Z" fill="black" fill-opacity="0.88"/>
<path d="M33.793 111.035H28.9654V115.862H33.793V111.035Z" fill="black" fill-opacity="0.88"/>
<path d="M48.2758 111.035H43.4482V115.862H48.2758V111.035Z" fill="black" fill-opacity="0.88"/>
<path d="M53.1034 111.035H48.2758V115.862H53.1034V111.035Z" fill="black" fill-opacity="0.88"/>
<path d="M62.7585 111.035H57.9309V115.862H62.7585V111.035Z" fill="black" fill-opacity="0.88"/>
<path d="M72.4137 111.035H67.5861V115.862H72.4137V111.035Z" fill="black" fill-opacity="0.88"/>
<path d="M77.2413 111.035H72.4137V115.862H77.2413V111.035Z" fill="black" fill-opacity="0.88"/>
<path d="M96.5516 111.035H91.724V115.862H96.5516V111.035Z" fill="black" fill-opacity="0.88"/>
<path d="M101.379 111.035H96.5516V115.862H101.379V111.035Z" fill="black" fill-opacity="0.88"/>
<path d="M120.69 111.035H115.862V115.862H120.69V111.035Z" fill="black" fill-opacity="0.88"/>
<path d="M125.517 111.035H120.69V115.862H125.517V111.035Z" fill="black" fill-opacity="0.88"/>
<path d="M130.345 111.035H125.517V115.862H130.345V111.035Z" fill="black" fill-opacity="0.88"/>
<path d="M135.172 111.035H130.345V115.862H135.172V111.035Z" fill="black" fill-opacity="0.88"/>
<path d="M4.8275 115.862H-9.15527e-05V120.69H4.8275V115.862Z" fill="black" fill-opacity="0.88"/>
<path d="M14.4827 115.862H9.65508V120.69H14.4827V115.862Z" fill="black" fill-opacity="0.88"/>
<path d="M19.3103 115.862H14.4827V120.69H19.3103V115.862Z" fill="black" fill-opacity="0.88"/>
<path d="M24.1378 115.862H19.3103V120.69H24.1378V115.862Z" fill="black" fill-opacity="0.88"/>
<path d="M33.793 115.862H28.9654V120.69H33.793V115.862Z" fill="black" fill-opacity="0.88"/>
<path d="M43.4482 115.862H38.6206V120.69H43.4482V115.862Z" fill="black" fill-opacity="0.88"/>
<path d="M48.2758 115.862H43.4482V120.69H48.2758V115.862Z" fill="black" fill-opacity="0.88"/>
<path d="M67.5861 115.862H62.7585V120.69H67.5861V115.862Z" fill="black" fill-opacity="0.88"/>
<path d="M77.2413 115.862H72.4137V120.69H77.2413V115.862Z" fill="black" fill-opacity="0.88"/>
<path d="M86.8965 115.862H82.0689V120.69H86.8965V115.862Z" fill="black" fill-opacity="0.88"/>
<path d="M96.5516 115.862H91.724V120.69H96.5516V115.862Z" fill="black" fill-opacity="0.88"/>
<path d="M101.379 115.862H96.5516V120.69H101.379V115.862Z" fill="black" fill-opacity="0.88"/>
<path d="M106.207 115.862H101.379V120.69H106.207V115.862Z" fill="black" fill-opacity="0.88"/>
<path d="M111.034 115.862H106.207V120.69H111.034V115.862Z" fill="black" fill-opacity="0.88"/>
<path d="M115.862 115.862H111.034V120.69H115.862V115.862Z" fill="black" fill-opacity="0.88"/>
<path d="M120.69 115.862H115.862V120.69H120.69V115.862Z" fill="black" fill-opacity="0.88"/>
<path d="M130.345 115.862H125.517V120.69H130.345V115.862Z" fill="black" fill-opacity="0.88"/>
<path d="M140 115.862H135.172V120.69H140V115.862Z" fill="black" fill-opacity="0.88"/>
<path d="M4.8275 120.69H-9.15527e-05V125.517H4.8275V120.69Z" fill="black" fill-opacity="0.88"/>
<path d="M14.4827 120.69H9.65508V125.517H14.4827V120.69Z" fill="black" fill-opacity="0.88"/>
<path d="M19.3103 120.69H14.4827V125.517H19.3103V120.69Z" fill="black" fill-opacity="0.88"/>
<path d="M24.1378 120.69H19.3103V125.517H24.1378V120.69Z" fill="black" fill-opacity="0.88"/>
<path d="M33.793 120.69H28.9654V125.517H33.793V120.69Z" fill="black" fill-opacity="0.88"/>
<path d="M57.9309 120.69H53.1034V125.517H57.9309V120.69Z" fill="black" fill-opacity="0.88"/>
<path d="M67.5861 120.69H62.7585V125.517H67.5861V120.69Z" fill="black" fill-opacity="0.88"/>
<path d="M82.0689 120.69H77.2413V125.517H82.0689V120.69Z" fill="black" fill-opacity="0.88"/>
<path d="M91.724 120.69H86.8965V125.517H91.724V120.69Z" fill="black" fill-opacity="0.88"/>
<path d="M96.5516 120.69H91.724V125.517H96.5516V120.69Z" fill="black" fill-opacity="0.88"/>
<path d="M101.379 120.69H96.5516V125.517H101.379V120.69Z" fill="black" fill-opacity="0.88"/>
<path d="M106.207 120.69H101.379V125.517H106.207V120.69Z" fill="black" fill-opacity="0.88"/>
<path d="M111.034 120.69H106.207V125.517H111.034V120.69Z" fill="black" fill-opacity="0.88"/>
<path d="M120.69 120.69H115.862V125.517H120.69V120.69Z" fill="black" fill-opacity="0.88"/>
<path d="M135.172 120.69H130.345V125.517H135.172V120.69Z" fill="black" fill-opacity="0.88"/>
<path d="M140 120.69H135.172V125.517H140V120.69Z" fill="black" fill-opacity="0.88"/>
<path d="M4.8275 125.517H-9.15527e-05V130.345H4.8275V125.517Z" fill="black" fill-opacity="0.88"/>
<path d="M14.4827 125.517H9.65508V130.345H14.4827V125.517Z" fill="black" fill-opacity="0.88"/>
<path d="M19.3103 125.517H14.4827V130.345H19.3103V125.517Z" fill="black" fill-opacity="0.88"/>
<path d="M24.1378 125.517H19.3103V130.345H24.1378V125.517Z" fill="black" fill-opacity="0.88"/>
<path d="M33.793 125.517H28.9654V130.345H33.793V125.517Z" fill="black" fill-opacity="0.88"/>
<path d="M43.4482 125.517H38.6206V130.345H43.4482V125.517Z" fill="black" fill-opacity="0.88"/>
<path d="M48.2758 125.517H43.4482V130.345H48.2758V125.517Z" fill="black" fill-opacity="0.88"/>
<path d="M53.1034 125.517H48.2758V130.345H53.1034V125.517Z" fill="black" fill-opacity="0.88"/>
<path d="M67.5861 125.517H62.7585V130.345H67.5861V125.517Z" fill="black" fill-opacity="0.88"/>
<path d="M72.4137 125.517H67.5861V130.345H72.4137V125.517Z" fill="black" fill-opacity="0.88"/>
<path d="M77.2413 125.517H72.4137V130.345H77.2413V125.517Z" fill="black" fill-opacity="0.88"/>
<path d="M86.8965 125.517H82.0689V130.345H86.8965V125.517Z" fill="black" fill-opacity="0.88"/>
<path d="M96.5516 125.517H91.724V130.345H96.5516V125.517Z" fill="black" fill-opacity="0.88"/>
<path d="M101.379 125.517H96.5516V130.345H101.379V125.517Z" fill="black" fill-opacity="0.88"/>
<path d="M130.345 125.517H125.517V130.345H130.345V125.517Z" fill="black" fill-opacity="0.88"/>
<path d="M135.172 125.517H130.345V130.345H135.172V125.517Z" fill="black" fill-opacity="0.88"/>
<path d="M4.8275 130.345H-9.15527e-05V135.173H4.8275V130.345Z" fill="black" fill-opacity="0.88"/>
<path d="M33.793 130.345H28.9654V135.173H33.793V130.345Z" fill="black" fill-opacity="0.88"/>
<path d="M43.4482 130.345H38.6206V135.173H43.4482V130.345Z" fill="black" fill-opacity="0.88"/>
<path d="M48.2758 130.345H43.4482V135.173H48.2758V130.345Z" fill="black" fill-opacity="0.88"/>
<path d="M67.5861 130.345H62.7585V135.173H67.5861V130.345Z" fill="black" fill-opacity="0.88"/>
<path d="M86.8965 130.345H82.0689V135.173H86.8965V130.345Z" fill="black" fill-opacity="0.88"/>
<path d="M101.379 130.345H96.5516V135.173H101.379V130.345Z" fill="black" fill-opacity="0.88"/>
<path d="M125.517 130.345H120.69V135.173H125.517V130.345Z" fill="black" fill-opacity="0.88"/>
<path d="M130.345 130.345H125.517V135.173H130.345V130.345Z" fill="black" fill-opacity="0.88"/>
<path d="M4.8275 135.173H-9.15527e-05V140H4.8275V135.173Z" fill="black" fill-opacity="0.88"/>
<path d="M9.65508 135.173H4.8275V140H9.65508V135.173Z" fill="black" fill-opacity="0.88"/>
<path d="M14.4827 135.173H9.65508V140H14.4827V135.173Z" fill="black" fill-opacity="0.88"/>
<path d="M19.3103 135.173H14.4827V140H19.3103V135.173Z" fill="black" fill-opacity="0.88"/>
<path d="M24.1378 135.173H19.3103V140H24.1378V135.173Z" fill="black" fill-opacity="0.88"/>
<path d="M28.9654 135.173H24.1378V140H28.9654V135.173Z" fill="black" fill-opacity="0.88"/>
<path d="M33.793 135.173H28.9654V140H33.793V135.173Z" fill="black" fill-opacity="0.88"/>
<path d="M43.4482 135.173H38.6206V140H43.4482V135.173Z" fill="black" fill-opacity="0.88"/>
<path d="M57.9309 135.173H53.1034V140H57.9309V135.173Z" fill="black" fill-opacity="0.88"/>
<path d="M62.7585 135.173H57.9309V140H62.7585V135.173Z" fill="black" fill-opacity="0.88"/>
<path d="M67.5861 135.173H62.7585V140H67.5861V135.173Z" fill="black" fill-opacity="0.88"/>
<path d="M72.4137 135.173H67.5861V140H72.4137V135.173Z" fill="black" fill-opacity="0.88"/>
<path d="M77.2413 135.173H72.4137V140H77.2413V135.173Z" fill="black" fill-opacity="0.88"/>
<path d="M91.724 135.173H86.8965V140H91.724V135.173Z" fill="black" fill-opacity="0.88"/>
<path d="M130.345 135.173H125.517V140H130.345V135.173Z" fill="black" fill-opacity="0.88"/>
<path d="M135.172 135.173H130.345V140H135.172V135.173Z" fill="black" fill-opacity="0.88"/>
</svg>
