<svg width="64" height="64" viewBox="0 0 64 64" fill="none" xmlns="http://www.w3.org/2000/svg">
<path d="M48.4726 31.0461C48.4514 31.0461 48.4319 31.0519 48.411 31.0521C48.8004 30.1512 49.0187 29.1588 49.0187 28.1149C49.0187 24.0215 45.7001 20.7029 41.6067 20.7029C40.1599 20.7029 38.8145 21.124 37.6736 21.8408C36.1304 18.0901 32.4438 15.4471 28.1364 15.4471C22.4407 15.4471 17.8236 20.0642 17.8236 25.76C17.8236 26.1903 17.8585 26.6121 17.9098 27.0286C17.8807 27.0284 17.8527 27.0243 17.8236 27.0243C14.005 27.0243 10.9091 30.1201 10.9091 33.939C10.9091 37.7577 14.005 40.8535 17.8236 40.8535H48.4726C51.1809 40.8535 53.3763 38.6581 53.3763 35.9498C53.3763 33.2414 51.1809 31.0461 48.4726 31.0461Z" fill="white"/>
<path d="M24.4983 52.935C23.6653 54.6679 21.5851 55.3976 19.8522 54.5646C18.1193 53.7316 17.3896 51.6514 18.2226 49.9185C19.0559 48.1856 24.4425 45.0148 24.4425 45.0148C24.4425 45.0148 25.3313 51.2021 24.4983 52.935Z" fill="#C2CEF2"/>
<path d="M33.1553 52.935C32.3226 54.6679 30.2424 55.3976 28.5095 54.5646C26.7763 53.7316 26.0469 51.6514 26.8799 49.9185C27.7131 48.1856 33.0998 45.0148 33.0998 45.0148C33.0998 45.0148 33.9886 51.2021 33.1553 52.935Z" fill="#C2CEF2"/>
<path d="M41.9348 52.935C41.1019 54.6679 39.0217 55.3976 37.2888 54.5646C35.5559 53.7316 34.8264 51.6514 35.6592 49.9185C36.4924 48.1856 41.879 45.0148 41.879 45.0148C41.879 45.0148 42.7678 51.2021 41.9348 52.935Z" fill="#C2CEF2"/>
</svg>
