<svg viewBox="0 0 24 24" fill="none" xmlns="http://www.w3.org/2000/svg"><g id="SVGRepo_bgCarrier" stroke-width="0"></g><g id="SVGRepo_tracerCarrier" stroke-linecap="round" stroke-linejoin="round"></g><g id="SVGRepo_iconCarrier"> <path d="M7.50009 15L9.17309 13.744C9.34385 13.6161 9.53889 13.5244 9.74629 13.4743C9.9537 13.4243 10.1691 13.4171 10.3794 13.4532C10.5897 13.4892 10.7904 13.5677 10.9693 13.6839C11.1483 13.8001 11.3016 13.9516 11.4201 14.129C11.5917 14.3869 11.6833 14.6897 11.6833 14.9995C11.6833 15.3093 11.5917 15.6121 11.4201 15.87L9.77508 18.337C9.26959 19.0948 8.54604 19.6813 7.70008 20.019L5.28174 20.9873" stroke="#8257e5" stroke-width="1.5" stroke-linecap="round" stroke-linejoin="round"></path> <path d="M0.75 23.25V18.173C0.749999 17.5634 0.873837 16.9602 1.114 16.4L2.291 13.654C2.74618 12.5917 3.59266 11.7452 4.655 11.29L8.17928 9.7803" stroke="#8257e5" stroke-width="1.5" stroke-linecap="round" stroke-linejoin="round"></path> <path d="M8.25 19.755V21C8.25 21.5967 8.48705 22.169 8.90901 22.591C9.33097 23.0129 9.90326 23.25 10.5 23.25H21C21.5967 23.25 22.169 23.0129 22.591 22.591C23.0129 22.169 23.25 21.5967 23.25 21V3C23.25 2.40326 23.0129 1.83097 22.591 1.40901C22.169 0.987053 21.5967 0.75 21 0.75H18.75C18.75 1.54565 18.4339 2.30871 17.8713 2.87132C17.3087 3.43393 16.5456 3.75 15.75 3.75C14.9544 3.75 14.1913 3.43393 13.6287 2.87132C13.0661 2.30871 12.75 1.54565 12.75 0.75H10.5C9.90326 0.75 9.33097 0.987053 8.90901 1.40901C8.48705 1.83097 8.25 2.40326 8.25 3V14.437" stroke="#8257e5" stroke-width="1.5" stroke-linecap="round" stroke-linejoin="round"></path> <path d="M12.2861 9.525L13.6701 10.328L19.4743 7.48766" stroke="#8257e5" stroke-width="1.5" stroke-linecap="round" stroke-linejoin="round"></path> <path d="M17.0691 8.665L13.7861 6.75" stroke="#8257e5" stroke-width="1.5" stroke-linecap="round" stroke-linejoin="round"></path> <path d="M23.25 18.75H20.25" stroke="#8257e5" stroke-width="1.5" stroke-linecap="round" stroke-linejoin="round"></path> <path d="M17.25 18.75H15" stroke="#8257e5" stroke-width="1.5" stroke-linecap="round" stroke-linejoin="round"></path> </g></svg>